<svg width="1030" height="211" viewBox="0 0 1030 211" fill="none" xmlns="http://www.w3.org/2000/svg">
<circle cx="105.5" cy="105.5" r="94.5" fill="#F1F1F1"/>
<path d="M211 105.5C211 163.766 163.766 211 105.5 211C47.234 211 0 163.766 0 105.5C0 47.234 47.234 0 105.5 0C163.766 0 211 47.234 211 105.5ZM4.21491 105.5C4.21491 161.438 49.5618 206.785 105.5 206.785C161.438 206.785 206.785 161.438 206.785 105.5C206.785 49.5618 161.438 4.21491 105.5 4.21491C49.5618 4.21491 4.21491 49.5618 4.21491 105.5Z" fill="#7EB693"/>
<path d="M84.2227 131.558C84.2227 133.649 83.6982 135.275 82.6494 136.436C81.6064 137.596 80.127 138.176 78.2109 138.176C76.2715 138.176 74.7803 137.602 73.7373 136.453C72.7002 135.299 72.1816 133.661 72.1816 131.54C72.1816 129.419 72.7031 127.79 73.7461 126.653C74.7949 125.517 76.2891 124.948 78.2285 124.948C80.1387 124.948 81.6152 125.525 82.6582 126.68C83.7012 127.834 84.2227 129.46 84.2227 131.558ZM74.4141 131.558C74.4141 133.14 74.7334 134.341 75.3721 135.161C76.0107 135.976 76.957 136.383 78.2109 136.383C79.459 136.383 80.3994 135.979 81.0322 135.17C81.6709 134.361 81.9902 133.157 81.9902 131.558C81.9902 129.981 81.6738 128.786 81.041 127.972C80.4141 127.157 79.4766 126.75 78.2285 126.75C76.9688 126.75 76.0166 127.157 75.3721 127.972C74.7334 128.786 74.4141 129.981 74.4141 131.558ZM91.6934 128.104C92.1094 128.104 92.4521 128.133 92.7217 128.191L92.5195 130.116C92.2266 130.046 91.9219 130.011 91.6055 130.011C90.7793 130.011 90.1084 130.28 89.5928 130.819C89.083 131.358 88.8281 132.059 88.8281 132.92V138H86.7627V128.279H88.3799L88.6523 129.993H88.7578C89.0801 129.413 89.499 128.953 90.0146 128.613C90.5361 128.273 91.0957 128.104 91.6934 128.104ZM102.741 128.279V129.413L101.08 129.721C101.232 129.926 101.358 130.178 101.458 130.477C101.558 130.775 101.607 131.092 101.607 131.426C101.607 132.428 101.262 133.216 100.57 133.79C99.8789 134.364 98.9268 134.651 97.7139 134.651C97.4033 134.651 97.1221 134.628 96.8701 134.581C96.4248 134.856 96.2021 135.179 96.2021 135.548C96.2021 135.771 96.3047 135.938 96.5098 136.049C96.7207 136.16 97.1045 136.216 97.6611 136.216H99.3574C100.43 136.216 101.244 136.444 101.801 136.901C102.357 137.358 102.636 138.018 102.636 138.879C102.636 139.98 102.182 140.83 101.273 141.428C100.365 142.025 99.0527 142.324 97.3359 142.324C96.0117 142.324 95.001 142.09 94.3037 141.621C93.6064 141.152 93.2578 140.484 93.2578 139.617C93.2578 139.02 93.4453 138.516 93.8203 138.105C94.2012 137.701 94.7314 137.42 95.4111 137.262C95.1357 137.145 94.9072 136.957 94.7256 136.699C94.5498 136.436 94.4619 136.16 94.4619 135.873C94.4619 135.51 94.5645 135.202 94.7695 134.95C94.9746 134.698 95.2793 134.449 95.6836 134.203C95.1797 133.986 94.7695 133.635 94.4531 133.148C94.1426 132.656 93.9873 132.082 93.9873 131.426C93.9873 130.371 94.3184 129.554 94.9805 128.974C95.6484 128.394 96.5977 128.104 97.8281 128.104C98.1035 128.104 98.3906 128.124 98.6895 128.165C98.9941 128.2 99.2227 128.238 99.375 128.279H102.741ZM95.1035 139.512C95.1035 139.957 95.3027 140.3 95.7012 140.54C96.1055 140.78 96.6709 140.9 97.3975 140.9C98.5225 140.9 99.3604 140.739 99.9111 140.417C100.462 140.095 100.737 139.667 100.737 139.134C100.737 138.712 100.585 138.41 100.28 138.229C99.9814 138.053 99.4219 137.965 98.6016 137.965H97.0371C96.4453 137.965 95.9736 138.103 95.6221 138.378C95.2764 138.659 95.1035 139.037 95.1035 139.512ZM95.9912 131.426C95.9912 132.035 96.1465 132.504 96.457 132.832C96.7734 133.16 97.2246 133.324 97.8105 133.324C99.0059 133.324 99.6035 132.686 99.6035 131.408C99.6035 130.775 99.4541 130.289 99.1553 129.949C98.8623 129.604 98.4141 129.431 97.8105 129.431C97.2129 129.431 96.7588 129.601 96.4482 129.94C96.1436 130.28 95.9912 130.775 95.9912 131.426ZM110.634 138L110.221 136.646H110.15C109.682 137.238 109.21 137.643 108.735 137.859C108.261 138.07 107.651 138.176 106.907 138.176C105.952 138.176 105.205 137.918 104.666 137.402C104.133 136.887 103.866 136.157 103.866 135.214C103.866 134.212 104.238 133.456 104.982 132.946C105.727 132.437 106.86 132.158 108.384 132.111L110.062 132.059V131.54C110.062 130.919 109.916 130.456 109.623 130.151C109.336 129.841 108.888 129.686 108.278 129.686C107.78 129.686 107.303 129.759 106.846 129.905C106.389 130.052 105.949 130.225 105.527 130.424L104.859 128.947C105.387 128.672 105.964 128.464 106.591 128.323C107.218 128.177 107.81 128.104 108.366 128.104C109.603 128.104 110.534 128.373 111.161 128.912C111.794 129.451 112.11 130.298 112.11 131.452V138H110.634ZM107.558 136.594C108.308 136.594 108.908 136.386 109.359 135.97C109.816 135.548 110.045 134.959 110.045 134.203V133.359L108.797 133.412C107.824 133.447 107.115 133.611 106.67 133.904C106.23 134.191 106.011 134.634 106.011 135.231C106.011 135.665 106.14 136.002 106.397 136.242C106.655 136.477 107.042 136.594 107.558 136.594ZM123.545 138H121.471V132.023C121.471 131.273 121.318 130.714 121.014 130.345C120.715 129.976 120.237 129.791 119.581 129.791C118.708 129.791 118.069 130.049 117.665 130.564C117.261 131.08 117.059 131.944 117.059 133.157V138H114.993V128.279H116.61L116.9 129.554H117.006C117.299 129.091 117.715 128.733 118.254 128.481C118.793 128.229 119.391 128.104 120.047 128.104C122.379 128.104 123.545 129.29 123.545 131.663V138ZM128.484 138H126.419V128.279H128.484V138ZM126.296 125.704C126.296 125.335 126.396 125.051 126.595 124.852C126.8 124.652 127.09 124.553 127.465 124.553C127.828 124.553 128.109 124.652 128.309 124.852C128.514 125.051 128.616 125.335 128.616 125.704C128.616 126.056 128.514 126.334 128.309 126.539C128.109 126.738 127.828 126.838 127.465 126.838C127.09 126.838 126.8 126.738 126.595 126.539C126.396 126.334 126.296 126.056 126.296 125.704ZM135.366 138.176C133.896 138.176 132.776 137.748 132.009 136.893C131.247 136.031 130.866 134.798 130.866 133.192C130.866 131.558 131.265 130.301 132.062 129.422C132.864 128.543 134.021 128.104 135.533 128.104C136.559 128.104 137.481 128.294 138.302 128.675L137.678 130.336C136.805 129.996 136.084 129.826 135.516 129.826C133.834 129.826 132.993 130.942 132.993 133.175C132.993 134.265 133.201 135.085 133.617 135.636C134.039 136.181 134.654 136.453 135.463 136.453C136.383 136.453 137.253 136.225 138.073 135.768V137.569C137.704 137.786 137.309 137.941 136.887 138.035C136.471 138.129 135.964 138.176 135.366 138.176Z" fill="#274C5B"/>
<path d="M63.1787 75.4287V111H55.5371V84.1201L47.2852 86.6348V80.7266L62.4219 75.4287H63.1787ZM98.6523 90.0527V96.376C98.6523 98.9801 98.3594 101.234 97.7734 103.139C97.2038 105.043 96.3737 106.614 95.2832 107.851C94.209 109.088 92.9232 110.007 91.4258 110.609C89.9447 111.195 88.3008 111.488 86.4941 111.488C85.0456 111.488 83.6947 111.301 82.4414 110.927C81.1882 110.552 80.057 109.975 79.0479 109.193C78.055 108.396 77.2005 107.403 76.4844 106.215C75.7682 105.027 75.2148 103.611 74.8242 101.967C74.4499 100.323 74.2627 98.4593 74.2627 96.376V90.0527C74.2627 87.416 74.5475 85.1536 75.1172 83.2656C75.7031 81.3776 76.5413 79.8151 77.6318 78.5781C78.7223 77.3411 80.0081 76.4297 81.4893 75.8438C82.9867 75.2578 84.6387 74.9648 86.4453 74.9648C87.8939 74.9648 89.2367 75.152 90.4736 75.5264C91.7269 75.9007 92.8581 76.4785 93.8672 77.2598C94.8763 78.041 95.7308 79.0257 96.4307 80.2139C97.1468 81.402 97.6921 82.818 98.0664 84.4619C98.457 86.0895 98.6523 87.9531 98.6523 90.0527ZM91.0352 97.3281V89.0518C91.0352 87.8311 90.9619 86.7731 90.8154 85.8779C90.6852 84.9665 90.4899 84.1934 90.2295 83.5586C89.9854 82.9238 89.6761 82.4111 89.3018 82.0205C88.9274 81.6299 88.4961 81.3451 88.0078 81.166C87.5358 80.9707 87.015 80.873 86.4453 80.873C85.7292 80.873 85.0863 81.0195 84.5166 81.3125C83.9469 81.6055 83.4668 82.0693 83.0762 82.7041C82.6855 83.3226 82.3844 84.1608 82.1729 85.2188C81.9775 86.2604 81.8799 87.5381 81.8799 89.0518V97.3281C81.8799 98.5488 81.945 99.6149 82.0752 100.526C82.2217 101.438 82.417 102.219 82.6611 102.87C82.9215 103.505 83.2389 104.026 83.6133 104.433C83.9876 104.823 84.4189 105.108 84.9072 105.287C85.3955 105.466 85.9245 105.556 86.4941 105.556C87.2103 105.556 87.8451 105.417 88.3984 105.141C88.9518 104.848 89.4238 104.384 89.8145 103.749C90.2214 103.098 90.5225 102.243 90.7178 101.186C90.9294 100.128 91.0352 98.8418 91.0352 97.3281ZM127.51 90.0527V96.376C127.51 98.9801 127.217 101.234 126.631 103.139C126.061 105.043 125.231 106.614 124.141 107.851C123.066 109.088 121.781 110.007 120.283 110.609C118.802 111.195 117.158 111.488 115.352 111.488C113.903 111.488 112.552 111.301 111.299 110.927C110.046 110.552 108.914 109.975 107.905 109.193C106.912 108.396 106.058 107.403 105.342 106.215C104.626 105.027 104.072 103.611 103.682 101.967C103.307 100.323 103.12 98.4593 103.12 96.376V90.0527C103.12 87.416 103.405 85.1536 103.975 83.2656C104.561 81.3776 105.399 79.8151 106.489 78.5781C107.58 77.3411 108.866 76.4297 110.347 75.8438C111.844 75.2578 113.496 74.9648 115.303 74.9648C116.751 74.9648 118.094 75.152 119.331 75.5264C120.584 75.9007 121.715 76.4785 122.725 77.2598C123.734 78.041 124.588 79.0257 125.288 80.2139C126.004 81.402 126.549 82.818 126.924 84.4619C127.314 86.0895 127.51 87.9531 127.51 90.0527ZM119.893 97.3281V89.0518C119.893 87.8311 119.819 86.7731 119.673 85.8779C119.543 84.9665 119.347 84.1934 119.087 83.5586C118.843 82.9238 118.534 82.4111 118.159 82.0205C117.785 81.6299 117.354 81.3451 116.865 81.166C116.393 80.9707 115.872 80.873 115.303 80.873C114.587 80.873 113.944 81.0195 113.374 81.3125C112.804 81.6055 112.324 82.0693 111.934 82.7041C111.543 83.3226 111.242 84.1608 111.03 85.2188C110.835 86.2604 110.737 87.5381 110.737 89.0518V97.3281C110.737 98.5488 110.802 99.6149 110.933 100.526C111.079 101.438 111.274 102.219 111.519 102.87C111.779 103.505 112.096 104.026 112.471 104.433C112.845 104.823 113.276 105.108 113.765 105.287C114.253 105.466 114.782 105.556 115.352 105.556C116.068 105.556 116.702 105.417 117.256 105.141C117.809 104.848 118.281 104.384 118.672 103.749C119.079 103.098 119.38 102.243 119.575 101.186C119.787 100.128 119.893 98.8418 119.893 97.3281ZM132.026 84.1689V82.2891C132.026 80.9382 132.319 79.7093 132.905 78.6025C133.491 77.4958 134.362 76.6087 135.518 75.9414C136.689 75.2741 138.122 74.9404 139.814 74.9404C141.572 74.9404 143.029 75.2741 144.185 75.9414C145.34 76.6087 146.203 77.4958 146.772 78.6025C147.358 79.7093 147.651 80.9382 147.651 82.2891V84.1689C147.651 85.4873 147.358 86.6999 146.772 87.8066C146.203 88.9134 145.34 89.8005 144.185 90.4678C143.045 91.1351 141.613 91.4688 139.888 91.4688C138.162 91.4688 136.714 91.1351 135.542 90.4678C134.386 89.8005 133.507 88.9134 132.905 87.8066C132.319 86.6999 132.026 85.4873 132.026 84.1689ZM137.007 82.2891V84.1689C137.007 84.7061 137.113 85.2106 137.324 85.6826C137.536 86.1546 137.853 86.5371 138.276 86.8301C138.7 87.123 139.229 87.2695 139.863 87.2695C140.514 87.2695 141.043 87.123 141.45 86.8301C141.857 86.5371 142.158 86.1546 142.354 85.6826C142.565 85.2106 142.671 84.7061 142.671 84.1689V82.2891C142.671 81.7357 142.565 81.223 142.354 80.751C142.158 80.2627 141.849 79.8721 141.426 79.5791C141.003 79.2861 140.465 79.1396 139.814 79.1396C139.196 79.1396 138.675 79.2861 138.252 79.5791C137.845 79.8721 137.536 80.2627 137.324 80.751C137.113 81.223 137.007 81.7357 137.007 82.2891ZM148.97 104.164V102.284C148.97 100.95 149.263 99.7288 149.849 98.6221C150.451 97.5153 151.33 96.6283 152.485 95.9609C153.657 95.2936 155.098 94.96 156.807 94.96C158.548 94.96 159.997 95.2936 161.152 95.9609C162.308 96.6283 163.171 97.5153 163.74 98.6221C164.326 99.7288 164.619 100.95 164.619 102.284V104.164C164.619 105.499 164.326 106.719 163.74 107.826C163.171 108.933 162.308 109.82 161.152 110.487C160.013 111.155 158.589 111.488 156.88 111.488C155.138 111.488 153.682 111.155 152.51 110.487C151.338 109.82 150.451 108.933 149.849 107.826C149.263 106.719 148.97 105.499 148.97 104.164ZM153.975 102.284V104.164C153.975 104.717 154.097 105.23 154.341 105.702C154.585 106.174 154.927 106.557 155.366 106.85C155.806 107.143 156.302 107.289 156.855 107.289C157.62 107.289 158.198 107.143 158.589 106.85C158.996 106.557 159.272 106.174 159.419 105.702C159.565 105.23 159.639 104.717 159.639 104.164V102.284C159.639 101.731 159.533 101.218 159.321 100.746C159.126 100.274 158.817 99.8916 158.394 99.5986C157.97 99.3057 157.441 99.1592 156.807 99.1592C156.172 99.1592 155.643 99.3057 155.22 99.5986C154.797 99.8916 154.479 100.274 154.268 100.746C154.072 101.218 153.975 101.731 153.975 102.284ZM158.711 80.5557L141.353 108.339L137.715 106.459L155.073 78.6758L158.711 80.5557Z" fill="#274C5B"/>
<circle cx="378.5" cy="105.5" r="94.5" fill="#F1F1F1"/>
<path d="M484 105.5C484 163.766 436.766 211 378.5 211C320.234 211 273 163.766 273 105.5C273 47.234 320.234 0 378.5 0C436.766 0 484 47.234 484 105.5ZM277.215 105.5C277.215 161.438 322.562 206.785 378.5 206.785C434.438 206.785 479.785 161.438 479.785 105.5C479.785 49.5618 434.438 4.21491 378.5 4.21491C322.562 4.21491 277.215 49.5618 277.215 105.5Z" fill="#7EB693"/>
<path d="M325.124 138L323.841 134.432H318.928L317.671 138H315.456L320.264 125.098H322.549L327.356 138H325.124ZM323.287 132.621L322.083 129.123C321.995 128.889 321.872 128.52 321.714 128.016C321.562 127.512 321.456 127.143 321.397 126.908C321.239 127.629 321.008 128.417 320.703 129.272L319.543 132.621H323.287ZM332.753 138.176C331.282 138.176 330.163 137.748 329.396 136.893C328.634 136.031 328.253 134.798 328.253 133.192C328.253 131.558 328.651 130.301 329.448 129.422C330.251 128.543 331.408 128.104 332.92 128.104C333.945 128.104 334.868 128.294 335.688 128.675L335.064 130.336C334.191 129.996 333.471 129.826 332.902 129.826C331.221 129.826 330.38 130.942 330.38 133.175C330.38 134.265 330.588 135.085 331.004 135.636C331.426 136.181 332.041 136.453 332.85 136.453C333.77 136.453 334.64 136.225 335.46 135.768V137.569C335.091 137.786 334.695 137.941 334.273 138.035C333.857 138.129 333.351 138.176 332.753 138.176ZM341.366 136.506C341.87 136.506 342.374 136.427 342.878 136.269V137.824C342.649 137.924 342.354 138.006 341.99 138.07C341.633 138.141 341.261 138.176 340.874 138.176C338.917 138.176 337.938 137.145 337.938 135.082V129.844H336.611V128.93L338.035 128.174L338.738 126.117H340.013V128.279H342.781V129.844H340.013V135.047C340.013 135.545 340.136 135.914 340.382 136.154C340.634 136.389 340.962 136.506 341.366 136.506ZM346.895 138H344.829V128.279H346.895V138ZM344.706 125.704C344.706 125.335 344.806 125.051 345.005 124.852C345.21 124.652 345.5 124.553 345.875 124.553C346.238 124.553 346.52 124.652 346.719 124.852C346.924 125.051 347.026 125.335 347.026 125.704C347.026 126.056 346.924 126.334 346.719 126.539C346.52 126.738 346.238 126.838 345.875 126.838C345.5 126.838 345.21 126.738 345.005 126.539C344.806 126.334 344.706 126.056 344.706 125.704ZM352.071 138L348.38 128.279H350.56L352.537 133.931C352.877 134.88 353.082 135.647 353.152 136.233H353.223C353.275 135.812 353.48 135.044 353.838 133.931L355.815 128.279H358.013L354.304 138H352.071ZM363.734 138.176C362.223 138.176 361.039 137.736 360.184 136.857C359.334 135.973 358.909 134.757 358.909 133.21C358.909 131.622 359.305 130.374 360.096 129.466C360.887 128.558 361.974 128.104 363.356 128.104C364.64 128.104 365.653 128.493 366.397 129.272C367.142 130.052 367.514 131.124 367.514 132.489V133.605H361.036C361.065 134.549 361.32 135.275 361.801 135.785C362.281 136.289 362.958 136.541 363.831 136.541C364.405 136.541 364.938 136.488 365.431 136.383C365.929 136.271 366.462 136.09 367.03 135.838V137.517C366.526 137.757 366.017 137.927 365.501 138.026C364.985 138.126 364.396 138.176 363.734 138.176ZM363.356 129.668C362.7 129.668 362.173 129.876 361.774 130.292C361.382 130.708 361.147 131.314 361.071 132.111H365.483C365.472 131.309 365.278 130.702 364.903 130.292C364.528 129.876 364.013 129.668 363.356 129.668ZM383.264 129.035C383.264 130.377 382.824 131.405 381.945 132.12C381.066 132.835 379.815 133.192 378.192 133.192H376.856V138H374.756V125.15H378.456C380.062 125.15 381.263 125.479 382.06 126.135C382.862 126.791 383.264 127.758 383.264 129.035ZM376.856 131.426H377.973C379.051 131.426 379.842 131.238 380.346 130.863C380.85 130.488 381.102 129.902 381.102 129.105C381.102 128.367 380.876 127.816 380.425 127.453C379.974 127.09 379.271 126.908 378.315 126.908H376.856V131.426ZM390.541 128.104C390.957 128.104 391.3 128.133 391.569 128.191L391.367 130.116C391.074 130.046 390.77 130.011 390.453 130.011C389.627 130.011 388.956 130.28 388.44 130.819C387.931 131.358 387.676 132.059 387.676 132.92V138H385.61V128.279H387.228L387.5 129.993H387.605C387.928 129.413 388.347 128.953 388.862 128.613C389.384 128.273 389.943 128.104 390.541 128.104ZM402.002 133.122C402.002 134.71 401.595 135.949 400.78 136.84C399.966 137.73 398.832 138.176 397.379 138.176C396.471 138.176 395.668 137.971 394.971 137.561C394.273 137.15 393.737 136.562 393.362 135.794C392.987 135.026 392.8 134.136 392.8 133.122C392.8 131.546 393.204 130.315 394.013 129.431C394.821 128.546 395.961 128.104 397.432 128.104C398.838 128.104 399.951 128.558 400.771 129.466C401.592 130.368 402.002 131.587 402.002 133.122ZM394.927 133.122C394.927 135.366 395.756 136.488 397.414 136.488C399.055 136.488 399.875 135.366 399.875 133.122C399.875 130.901 399.049 129.791 397.396 129.791C396.529 129.791 395.899 130.078 395.507 130.652C395.12 131.227 394.927 132.05 394.927 133.122ZM407.662 138.176C406.449 138.176 405.503 137.736 404.823 136.857C404.144 135.979 403.804 134.745 403.804 133.157C403.804 131.563 404.146 130.324 404.832 129.439C405.523 128.549 406.479 128.104 407.697 128.104C408.975 128.104 409.947 128.575 410.615 129.519H410.721C410.621 128.821 410.571 128.271 410.571 127.866V124.324H412.646V138H411.028L410.668 136.726H410.571C409.909 137.692 408.939 138.176 407.662 138.176ZM408.216 136.506C409.065 136.506 409.684 136.269 410.07 135.794C410.457 135.313 410.656 134.537 410.668 133.465V133.175C410.668 131.95 410.469 131.08 410.07 130.564C409.672 130.049 409.048 129.791 408.198 129.791C407.472 129.791 406.912 130.087 406.52 130.679C406.127 131.265 405.931 132.103 405.931 133.192C405.931 134.271 406.121 135.094 406.502 135.662C406.883 136.225 407.454 136.506 408.216 136.506ZM422.454 138L422.164 136.726H422.059C421.771 137.177 421.361 137.531 420.828 137.789C420.301 138.047 419.697 138.176 419.018 138.176C417.84 138.176 416.961 137.883 416.381 137.297C415.801 136.711 415.511 135.823 415.511 134.634V128.279H417.594V134.273C417.594 135.018 417.746 135.577 418.051 135.952C418.355 136.321 418.833 136.506 419.483 136.506C420.351 136.506 420.986 136.248 421.391 135.732C421.801 135.211 422.006 134.341 422.006 133.122V128.279H424.08V138H422.454ZM430.944 138.176C429.474 138.176 428.354 137.748 427.587 136.893C426.825 136.031 426.444 134.798 426.444 133.192C426.444 131.558 426.843 130.301 427.64 129.422C428.442 128.543 429.6 128.104 431.111 128.104C432.137 128.104 433.06 128.294 433.88 128.675L433.256 130.336C432.383 129.996 431.662 129.826 431.094 129.826C429.412 129.826 428.571 130.942 428.571 133.175C428.571 134.265 428.779 135.085 429.195 135.636C429.617 136.181 430.232 136.453 431.041 136.453C431.961 136.453 432.831 136.225 433.651 135.768V137.569C433.282 137.786 432.887 137.941 432.465 138.035C432.049 138.129 431.542 138.176 430.944 138.176ZM439.558 136.506C440.062 136.506 440.565 136.427 441.069 136.269V137.824C440.841 137.924 440.545 138.006 440.182 138.07C439.824 138.141 439.452 138.176 439.065 138.176C437.108 138.176 436.13 137.145 436.13 135.082V129.844H434.803V128.93L436.227 128.174L436.93 126.117H438.204V128.279H440.973V129.844H438.204V135.047C438.204 135.545 438.327 135.914 438.573 136.154C438.825 136.389 439.153 136.506 439.558 136.506Z" fill="#274C5B"/>
<path d="M362.094 105.067V111H337.533V105.971L349.008 93.8125C350.082 92.5755 350.937 91.485 351.571 90.541C352.222 89.597 352.694 88.7425 352.987 87.9775C353.28 87.1963 353.427 86.4801 353.427 85.8291C353.427 84.7712 353.256 83.876 352.914 83.1436C352.589 82.4111 352.108 81.8496 351.474 81.459C350.839 81.0684 350.066 80.873 349.154 80.873C348.178 80.873 347.34 81.1253 346.64 81.6299C345.94 82.1344 345.403 82.8343 345.028 83.7295C344.654 84.6084 344.467 85.6094 344.467 86.7324H336.801C336.801 84.5677 337.322 82.5983 338.363 80.8242C339.405 79.0339 340.862 77.6097 342.733 76.5518C344.605 75.4775 346.794 74.9404 349.301 74.9404C351.872 74.9404 354.029 75.3473 355.771 76.1611C357.512 76.9749 358.83 78.1387 359.726 79.6523C360.621 81.166 361.068 82.9889 361.068 85.1211C361.068 86.3255 360.873 87.4893 360.482 88.6123C360.108 89.7354 359.563 90.8503 358.847 91.957C358.131 93.0638 357.268 94.195 356.259 95.3506C355.25 96.4899 354.11 97.6943 352.841 98.9639L347.47 105.067H362.094ZM390.707 101.234C390.707 103.48 390.178 105.368 389.12 106.898C388.062 108.428 386.614 109.576 384.774 110.341C382.951 111.106 380.868 111.488 378.524 111.488C376.197 111.488 374.105 111.106 372.25 110.341C370.411 109.576 368.954 108.428 367.88 106.898C366.806 105.368 366.269 103.48 366.269 101.234C366.269 99.7044 366.57 98.3291 367.172 97.1084C367.79 95.8877 368.645 94.846 369.735 93.9834C370.842 93.1208 372.136 92.4616 373.617 92.0059C375.115 91.5501 376.734 91.3223 378.476 91.3223C380.819 91.3223 382.911 91.7292 384.75 92.543C386.605 93.3405 388.062 94.4798 389.12 95.9609C390.178 97.4421 390.707 99.1999 390.707 101.234ZM383.041 100.673C383.041 99.6312 382.846 98.7523 382.455 98.0361C382.081 97.3037 381.552 96.7422 380.868 96.3516C380.185 95.9447 379.387 95.7412 378.476 95.7412C377.564 95.7412 376.767 95.9447 376.083 96.3516C375.399 96.7422 374.862 97.3037 374.472 98.0361C374.097 98.7523 373.91 99.6312 373.91 100.673C373.91 101.682 374.105 102.561 374.496 103.31C374.887 104.042 375.424 104.604 376.107 104.994C376.791 105.368 377.597 105.556 378.524 105.556C379.452 105.556 380.25 105.368 380.917 104.994C381.584 104.604 382.105 104.042 382.479 103.31C382.854 102.561 383.041 101.682 383.041 100.673ZM389.95 84.9014C389.95 86.7406 389.462 88.36 388.485 89.7598C387.525 91.1432 386.182 92.2256 384.457 93.0068C382.732 93.7718 380.754 94.1543 378.524 94.1543C376.295 94.1543 374.309 93.7718 372.567 93.0068C370.842 92.2256 369.483 91.1432 368.49 89.7598C367.514 88.36 367.025 86.7406 367.025 84.9014C367.025 82.7529 367.514 80.9382 368.49 79.457C369.483 77.9759 370.842 76.8529 372.567 76.0879C374.293 75.3229 376.262 74.9404 378.476 74.9404C380.722 74.9404 382.707 75.3229 384.433 76.0879C386.158 76.8529 387.509 77.9759 388.485 79.457C389.462 80.9382 389.95 82.7529 389.95 84.9014ZM382.333 85.292C382.333 84.3968 382.178 83.6237 381.869 82.9727C381.576 82.3053 381.145 81.7926 380.575 81.4346C380.006 81.0602 379.306 80.873 378.476 80.873C377.678 80.873 376.994 81.0521 376.425 81.4102C375.855 81.752 375.416 82.2565 375.106 82.9238C374.813 83.5749 374.667 84.3643 374.667 85.292C374.667 86.2035 374.813 87.001 375.106 87.6846C375.416 88.3519 375.855 88.8809 376.425 89.2715C377.011 89.6458 377.711 89.833 378.524 89.833C379.354 89.833 380.046 89.6458 380.6 89.2715C381.169 88.8809 381.601 88.3519 381.894 87.6846C382.187 87.001 382.333 86.2035 382.333 85.292ZM402.06 94.9844L396.005 93.5439L398.08 75.4531H418.441V81.4834H404.33L403.476 88.9785C403.915 88.7181 404.607 88.4333 405.551 88.124C406.495 87.7985 407.553 87.6357 408.725 87.6357C410.466 87.6357 412.012 87.9043 413.363 88.4414C414.714 88.9785 415.854 89.7598 416.781 90.7852C417.725 91.7943 418.433 93.0394 418.905 94.5205C419.394 96.0016 419.638 97.6862 419.638 99.5742C419.638 101.137 419.394 102.634 418.905 104.066C418.417 105.482 417.668 106.752 416.659 107.875C415.666 108.982 414.405 109.861 412.875 110.512C411.345 111.163 409.547 111.488 407.479 111.488C405.917 111.488 404.403 111.252 402.938 110.78C401.474 110.308 400.155 109.625 398.983 108.729C397.828 107.818 396.908 106.711 396.225 105.409C395.557 104.107 395.215 102.642 395.199 101.015H402.816C402.898 101.959 403.134 102.772 403.524 103.456C403.915 104.123 404.444 104.644 405.111 105.019C405.779 105.377 406.552 105.556 407.431 105.556C408.277 105.556 408.993 105.393 409.579 105.067C410.165 104.726 410.629 104.262 410.971 103.676C411.329 103.09 411.589 102.406 411.752 101.625C411.915 100.844 411.996 100.006 411.996 99.1104C411.996 98.1826 411.89 97.3525 411.679 96.6201C411.467 95.8714 411.142 95.2367 410.702 94.7158C410.263 94.1787 409.701 93.7718 409.018 93.4951C408.35 93.2021 407.545 93.0557 406.601 93.0557C405.364 93.0557 404.395 93.2591 403.695 93.666C402.995 94.0729 402.45 94.5124 402.06 94.9844Z" fill="#274C5B"/>
<circle cx="651.5" cy="105.5" r="94.5" fill="#F1F1F1"/>
<path d="M757 105.5C757 163.766 709.766 211 651.5 211C593.234 211 546 163.766 546 105.5C546 47.234 593.234 0 651.5 0C709.766 0 757 47.234 757 105.5ZM550.215 105.5C550.215 161.438 595.562 206.785 651.5 206.785C707.438 206.785 752.785 161.438 752.785 105.5C752.785 49.5618 707.438 4.21491 651.5 4.21491C595.562 4.21491 550.215 49.5618 550.215 105.5Z" fill="#7EB693"/>
<path d="M591.533 131.558C591.533 133.649 591.009 135.275 589.96 136.436C588.917 137.596 587.438 138.176 585.521 138.176C583.582 138.176 582.091 137.602 581.048 136.453C580.011 135.299 579.492 133.661 579.492 131.54C579.492 129.419 580.014 127.79 581.057 126.653C582.105 125.517 583.6 124.948 585.539 124.948C587.449 124.948 588.926 125.525 589.969 126.68C591.012 127.834 591.533 129.46 591.533 131.558ZM581.725 131.558C581.725 133.14 582.044 134.341 582.683 135.161C583.321 135.976 584.268 136.383 585.521 136.383C586.77 136.383 587.71 135.979 588.343 135.17C588.981 134.361 589.301 133.157 589.301 131.558C589.301 129.981 588.984 128.786 588.352 127.972C587.725 127.157 586.787 126.75 585.539 126.75C584.279 126.75 583.327 127.157 582.683 127.972C582.044 128.786 581.725 129.981 581.725 131.558ZM599.004 128.104C599.42 128.104 599.763 128.133 600.032 128.191L599.83 130.116C599.537 130.046 599.232 130.011 598.916 130.011C598.09 130.011 597.419 130.28 596.903 130.819C596.394 131.358 596.139 132.059 596.139 132.92V138H594.073V128.279H595.69L595.963 129.993H596.068C596.391 129.413 596.81 128.953 597.325 128.613C597.847 128.273 598.406 128.104 599.004 128.104ZM610.052 128.279V129.413L608.391 129.721C608.543 129.926 608.669 130.178 608.769 130.477C608.868 130.775 608.918 131.092 608.918 131.426C608.918 132.428 608.572 133.216 607.881 133.79C607.189 134.364 606.237 134.651 605.024 134.651C604.714 134.651 604.433 134.628 604.181 134.581C603.735 134.856 603.513 135.179 603.513 135.548C603.513 135.771 603.615 135.938 603.82 136.049C604.031 136.16 604.415 136.216 604.972 136.216H606.668C607.74 136.216 608.555 136.444 609.111 136.901C609.668 137.358 609.946 138.018 609.946 138.879C609.946 139.98 609.492 140.83 608.584 141.428C607.676 142.025 606.363 142.324 604.646 142.324C603.322 142.324 602.312 142.09 601.614 141.621C600.917 141.152 600.568 140.484 600.568 139.617C600.568 139.02 600.756 138.516 601.131 138.105C601.512 137.701 602.042 137.42 602.722 137.262C602.446 137.145 602.218 136.957 602.036 136.699C601.86 136.436 601.772 136.16 601.772 135.873C601.772 135.51 601.875 135.202 602.08 134.95C602.285 134.698 602.59 134.449 602.994 134.203C602.49 133.986 602.08 133.635 601.764 133.148C601.453 132.656 601.298 132.082 601.298 131.426C601.298 130.371 601.629 129.554 602.291 128.974C602.959 128.394 603.908 128.104 605.139 128.104C605.414 128.104 605.701 128.124 606 128.165C606.305 128.2 606.533 128.238 606.686 128.279H610.052ZM602.414 139.512C602.414 139.957 602.613 140.3 603.012 140.54C603.416 140.78 603.981 140.9 604.708 140.9C605.833 140.9 606.671 140.739 607.222 140.417C607.772 140.095 608.048 139.667 608.048 139.134C608.048 138.712 607.896 138.41 607.591 138.229C607.292 138.053 606.732 137.965 605.912 137.965H604.348C603.756 137.965 603.284 138.103 602.933 138.378C602.587 138.659 602.414 139.037 602.414 139.512ZM603.302 131.426C603.302 132.035 603.457 132.504 603.768 132.832C604.084 133.16 604.535 133.324 605.121 133.324C606.316 133.324 606.914 132.686 606.914 131.408C606.914 130.775 606.765 130.289 606.466 129.949C606.173 129.604 605.725 129.431 605.121 129.431C604.523 129.431 604.069 129.601 603.759 129.94C603.454 130.28 603.302 130.775 603.302 131.426ZM617.944 138L617.531 136.646H617.461C616.992 137.238 616.521 137.643 616.046 137.859C615.571 138.07 614.962 138.176 614.218 138.176C613.263 138.176 612.516 137.918 611.977 137.402C611.443 136.887 611.177 136.157 611.177 135.214C611.177 134.212 611.549 133.456 612.293 132.946C613.037 132.437 614.171 132.158 615.694 132.111L617.373 132.059V131.54C617.373 130.919 617.227 130.456 616.934 130.151C616.646 129.841 616.198 129.686 615.589 129.686C615.091 129.686 614.613 129.759 614.156 129.905C613.699 130.052 613.26 130.225 612.838 130.424L612.17 128.947C612.697 128.672 613.274 128.464 613.901 128.323C614.528 128.177 615.12 128.104 615.677 128.104C616.913 128.104 617.845 128.373 618.472 128.912C619.104 129.451 619.421 130.298 619.421 131.452V138H617.944ZM614.868 136.594C615.618 136.594 616.219 136.386 616.67 135.97C617.127 135.548 617.355 134.959 617.355 134.203V133.359L616.107 133.412C615.135 133.447 614.426 133.611 613.98 133.904C613.541 134.191 613.321 134.634 613.321 135.231C613.321 135.665 613.45 136.002 613.708 136.242C613.966 136.477 614.353 136.594 614.868 136.594ZM630.855 138H628.781V132.023C628.781 131.273 628.629 130.714 628.324 130.345C628.025 129.976 627.548 129.791 626.892 129.791C626.019 129.791 625.38 130.049 624.976 130.564C624.571 131.08 624.369 131.944 624.369 133.157V138H622.304V128.279H623.921L624.211 129.554H624.316C624.609 129.091 625.025 128.733 625.564 128.481C626.104 128.229 626.701 128.104 627.357 128.104C629.689 128.104 630.855 129.29 630.855 131.663V138ZM635.795 138H633.729V128.279H635.795V138ZM633.606 125.704C633.606 125.335 633.706 125.051 633.905 124.852C634.11 124.652 634.4 124.553 634.775 124.553C635.139 124.553 635.42 124.652 635.619 124.852C635.824 125.051 635.927 125.335 635.927 125.704C635.927 126.056 635.824 126.334 635.619 126.539C635.42 126.738 635.139 126.838 634.775 126.838C634.4 126.838 634.11 126.738 633.905 126.539C633.706 126.334 633.606 126.056 633.606 125.704ZM642.677 138.176C641.206 138.176 640.087 137.748 639.319 136.893C638.558 136.031 638.177 134.798 638.177 133.192C638.177 131.558 638.575 130.301 639.372 129.422C640.175 128.543 641.332 128.104 642.844 128.104C643.869 128.104 644.792 128.294 645.612 128.675L644.988 130.336C644.115 129.996 643.395 129.826 642.826 129.826C641.145 129.826 640.304 130.942 640.304 133.175C640.304 134.265 640.512 135.085 640.928 135.636C641.35 136.181 641.965 136.453 642.773 136.453C643.693 136.453 644.563 136.225 645.384 135.768V137.569C645.015 137.786 644.619 137.941 644.197 138.035C643.781 138.129 643.274 138.176 642.677 138.176ZM663.973 131.558C663.973 133.649 663.448 135.275 662.399 136.436C661.356 137.596 659.877 138.176 657.961 138.176C656.021 138.176 654.53 137.602 653.487 136.453C652.45 135.299 651.932 133.661 651.932 131.54C651.932 129.419 652.453 127.79 653.496 126.653C654.545 125.517 656.039 124.948 657.979 124.948C659.889 124.948 661.365 125.525 662.408 126.68C663.451 127.834 663.973 129.46 663.973 131.558ZM654.164 131.558C654.164 133.14 654.483 134.341 655.122 135.161C655.761 135.976 656.707 136.383 657.961 136.383C659.209 136.383 660.149 135.979 660.782 135.17C661.421 134.361 661.74 133.157 661.74 131.558C661.74 129.981 661.424 128.786 660.791 127.972C660.164 127.157 659.227 126.75 657.979 126.75C656.719 126.75 655.767 127.157 655.122 127.972C654.483 128.786 654.164 129.981 654.164 131.558ZM671.443 128.104C671.859 128.104 672.202 128.133 672.472 128.191L672.27 130.116C671.977 130.046 671.672 130.011 671.355 130.011C670.529 130.011 669.858 130.28 669.343 130.819C668.833 131.358 668.578 132.059 668.578 132.92V138H666.513V128.279H668.13L668.402 129.993H668.508C668.83 129.413 669.249 128.953 669.765 128.613C670.286 128.273 670.846 128.104 671.443 128.104ZM678.202 138.176C676.731 138.176 675.612 137.748 674.845 136.893C674.083 136.031 673.702 134.798 673.702 133.192C673.702 131.558 674.101 130.301 674.897 129.422C675.7 128.543 676.857 128.104 678.369 128.104C679.395 128.104 680.317 128.294 681.138 128.675L680.514 130.336C679.641 129.996 678.92 129.826 678.352 129.826C676.67 129.826 675.829 130.942 675.829 133.175C675.829 134.265 676.037 135.085 676.453 135.636C676.875 136.181 677.49 136.453 678.299 136.453C679.219 136.453 680.089 136.225 680.909 135.768V137.569C680.54 137.786 680.145 137.941 679.723 138.035C679.307 138.129 678.8 138.176 678.202 138.176ZM691.746 138H689.672V132.023C689.672 131.273 689.52 130.714 689.215 130.345C688.916 129.976 688.438 129.791 687.782 129.791C686.915 129.791 686.276 130.052 685.866 130.573C685.462 131.089 685.26 131.956 685.26 133.175V138H683.194V124.324H685.26V127.796C685.26 128.353 685.225 128.947 685.154 129.58H685.286C685.567 129.111 685.957 128.748 686.455 128.49C686.959 128.232 687.545 128.104 688.213 128.104C690.568 128.104 691.746 129.29 691.746 131.663V138ZM700.702 138L700.289 136.646H700.219C699.75 137.238 699.278 137.643 698.804 137.859C698.329 138.07 697.72 138.176 696.976 138.176C696.021 138.176 695.273 137.918 694.734 137.402C694.201 136.887 693.935 136.157 693.935 135.214C693.935 134.212 694.307 133.456 695.051 132.946C695.795 132.437 696.929 132.158 698.452 132.111L700.131 132.059V131.54C700.131 130.919 699.984 130.456 699.691 130.151C699.404 129.841 698.956 129.686 698.347 129.686C697.849 129.686 697.371 129.759 696.914 129.905C696.457 130.052 696.018 130.225 695.596 130.424L694.928 128.947C695.455 128.672 696.032 128.464 696.659 128.323C697.286 128.177 697.878 128.104 698.435 128.104C699.671 128.104 700.603 128.373 701.229 128.912C701.862 129.451 702.179 130.298 702.179 131.452V138H700.702ZM697.626 136.594C698.376 136.594 698.977 136.386 699.428 135.97C699.885 135.548 700.113 134.959 700.113 134.203V133.359L698.865 133.412C697.893 133.447 697.184 133.611 696.738 133.904C696.299 134.191 696.079 134.634 696.079 135.231C696.079 135.665 696.208 136.002 696.466 136.242C696.724 136.477 697.11 136.594 697.626 136.594ZM708.34 138.176C707.127 138.176 706.181 137.736 705.501 136.857C704.821 135.979 704.481 134.745 704.481 133.157C704.481 131.563 704.824 130.324 705.51 129.439C706.201 128.549 707.156 128.104 708.375 128.104C709.652 128.104 710.625 128.575 711.293 129.519H711.398C711.299 128.821 711.249 128.271 711.249 127.866V124.324H713.323V138H711.706L711.346 136.726H711.249C710.587 137.692 709.617 138.176 708.34 138.176ZM708.894 136.506C709.743 136.506 710.361 136.269 710.748 135.794C711.135 135.313 711.334 134.537 711.346 133.465V133.175C711.346 131.95 711.146 131.08 710.748 130.564C710.35 130.049 709.726 129.791 708.876 129.791C708.149 129.791 707.59 130.087 707.197 130.679C706.805 131.265 706.608 132.103 706.608 133.192C706.608 134.271 706.799 135.094 707.18 135.662C707.561 136.225 708.132 136.506 708.894 136.506ZM722.807 135.231C722.807 136.181 722.461 136.91 721.77 137.42C721.078 137.924 720.088 138.176 718.799 138.176C717.504 138.176 716.464 137.979 715.679 137.587V135.803C716.821 136.33 717.885 136.594 718.869 136.594C720.141 136.594 720.776 136.21 720.776 135.442C720.776 135.196 720.706 134.991 720.565 134.827C720.425 134.663 720.193 134.493 719.871 134.317C719.549 134.142 719.101 133.942 718.526 133.72C717.407 133.286 716.648 132.853 716.25 132.419C715.857 131.985 715.661 131.423 715.661 130.731C715.661 129.899 715.995 129.255 716.663 128.798C717.337 128.335 718.251 128.104 719.405 128.104C720.548 128.104 721.629 128.335 722.648 128.798L721.98 130.354C720.932 129.92 720.05 129.703 719.335 129.703C718.245 129.703 717.7 130.014 717.7 130.635C717.7 130.939 717.841 131.197 718.122 131.408C718.409 131.619 719.03 131.909 719.985 132.278C720.788 132.589 721.371 132.873 721.734 133.131C722.098 133.389 722.367 133.688 722.543 134.027C722.719 134.361 722.807 134.763 722.807 135.231Z" fill="#274C5B"/>
<path d="M603.881 89.9795H607.763C608.869 89.9795 609.781 89.7842 610.497 89.3936C611.229 89.0029 611.767 88.4495 612.108 87.7334C612.466 87.0173 612.646 86.179 612.646 85.2188C612.646 84.3887 612.483 83.6481 612.157 82.9971C611.832 82.346 611.335 81.8333 610.668 81.459C610.017 81.0684 609.171 80.873 608.129 80.873C607.38 80.873 606.664 81.0277 605.98 81.3369C605.313 81.6299 604.768 82.0612 604.345 82.6309C603.922 83.1842 603.71 83.8516 603.71 84.6328H596.068C596.068 82.6471 596.605 80.93 597.68 79.4814C598.77 78.0329 600.211 76.918 602.001 76.1367C603.808 75.3392 605.777 74.9404 607.909 74.9404C610.367 74.9404 612.523 75.3311 614.379 76.1123C616.251 76.8773 617.699 78.0166 618.725 79.5303C619.766 81.0277 620.287 82.8831 620.287 85.0967C620.287 86.2523 620.01 87.3672 619.457 88.4414C618.92 89.4993 618.147 90.4434 617.138 91.2734C616.145 92.0872 614.957 92.7383 613.573 93.2266C612.206 93.6986 610.684 93.9346 609.008 93.9346H603.881V89.9795ZM603.881 95.7168V91.835H609.008C610.863 91.835 612.523 92.0465 613.988 92.4697C615.453 92.8929 616.698 93.5033 617.724 94.3008C618.749 95.0983 619.53 96.0667 620.067 97.2061C620.604 98.3454 620.873 99.6149 620.873 101.015C620.873 102.675 620.548 104.156 619.896 105.458C619.245 106.76 618.334 107.859 617.162 108.754C615.99 109.649 614.615 110.333 613.036 110.805C611.457 111.26 609.748 111.488 607.909 111.488C606.428 111.488 604.955 111.285 603.49 110.878C602.025 110.471 600.699 109.853 599.511 109.022C598.323 108.176 597.37 107.11 596.654 105.824C595.938 104.522 595.58 102.976 595.58 101.186H603.222C603.222 102.016 603.433 102.764 603.856 103.432C604.296 104.083 604.89 104.604 605.639 104.994C606.404 105.368 607.234 105.556 608.129 105.556C609.203 105.556 610.115 105.36 610.863 104.97C611.628 104.563 612.206 104.009 612.597 103.31C613.004 102.61 613.207 101.804 613.207 100.893C613.207 99.6556 612.987 98.6628 612.548 97.9141C612.125 97.1491 611.506 96.5957 610.692 96.2539C609.879 95.8958 608.902 95.7168 607.763 95.7168H603.881ZM632.201 94.9844L626.146 93.5439L628.222 75.4531H648.583V81.4834H634.472L633.617 88.9785C634.057 88.7181 634.748 88.4333 635.692 88.124C636.636 87.7985 637.694 87.6357 638.866 87.6357C640.608 87.6357 642.154 87.9043 643.505 88.4414C644.856 88.9785 645.995 89.7598 646.923 90.7852C647.867 91.7943 648.575 93.0394 649.047 94.5205C649.535 96.0016 649.779 97.6862 649.779 99.5742C649.779 101.137 649.535 102.634 649.047 104.066C648.559 105.482 647.81 106.752 646.801 107.875C645.808 108.982 644.547 109.861 643.017 110.512C641.487 111.163 639.688 111.488 637.621 111.488C636.059 111.488 634.545 111.252 633.08 110.78C631.615 110.308 630.297 109.625 629.125 108.729C627.969 107.818 627.05 106.711 626.366 105.409C625.699 104.107 625.357 102.642 625.341 101.015H632.958C633.039 101.959 633.275 102.772 633.666 103.456C634.057 104.123 634.586 104.644 635.253 105.019C635.92 105.377 636.693 105.556 637.572 105.556C638.419 105.556 639.135 105.393 639.721 105.067C640.307 104.726 640.771 104.262 641.112 103.676C641.47 103.09 641.731 102.406 641.894 101.625C642.056 100.844 642.138 100.006 642.138 99.1104C642.138 98.1826 642.032 97.3525 641.82 96.6201C641.609 95.8714 641.283 95.2367 640.844 94.7158C640.404 94.1787 639.843 93.7718 639.159 93.4951C638.492 93.2021 637.686 93.0557 636.742 93.0557C635.505 93.0557 634.537 93.2591 633.837 93.666C633.137 94.0729 632.592 94.5124 632.201 94.9844ZM678.539 90.0527V96.376C678.539 98.9801 678.246 101.234 677.66 103.139C677.09 105.043 676.26 106.614 675.17 107.851C674.096 109.088 672.81 110.007 671.312 110.609C669.831 111.195 668.188 111.488 666.381 111.488C664.932 111.488 663.581 111.301 662.328 110.927C661.075 110.552 659.944 109.975 658.935 109.193C657.942 108.396 657.087 107.403 656.371 106.215C655.655 105.027 655.102 103.611 654.711 101.967C654.337 100.323 654.149 98.4593 654.149 96.376V90.0527C654.149 87.416 654.434 85.1536 655.004 83.2656C655.59 81.3776 656.428 79.8151 657.519 78.5781C658.609 77.3411 659.895 76.4297 661.376 75.8438C662.873 75.2578 664.525 74.9648 666.332 74.9648C667.781 74.9648 669.123 75.152 670.36 75.5264C671.614 75.9007 672.745 76.4785 673.754 77.2598C674.763 78.041 675.618 79.0257 676.317 80.2139C677.034 81.402 677.579 82.818 677.953 84.4619C678.344 86.0895 678.539 87.9531 678.539 90.0527ZM670.922 97.3281V89.0518C670.922 87.8311 670.849 86.7731 670.702 85.8779C670.572 84.9665 670.377 84.1934 670.116 83.5586C669.872 82.9238 669.563 82.4111 669.188 82.0205C668.814 81.6299 668.383 81.3451 667.895 81.166C667.423 80.9707 666.902 80.873 666.332 80.873C665.616 80.873 664.973 81.0195 664.403 81.3125C663.834 81.6055 663.354 82.0693 662.963 82.7041C662.572 83.3226 662.271 84.1608 662.06 85.2188C661.864 86.2604 661.767 87.5381 661.767 89.0518V97.3281C661.767 98.5488 661.832 99.6149 661.962 100.526C662.108 101.438 662.304 102.219 662.548 102.87C662.808 103.505 663.126 104.026 663.5 104.433C663.874 104.823 664.306 105.108 664.794 105.287C665.282 105.466 665.811 105.556 666.381 105.556C667.097 105.556 667.732 105.417 668.285 105.141C668.839 104.848 669.311 104.384 669.701 103.749C670.108 103.098 670.409 102.243 670.604 101.186C670.816 100.128 670.922 98.8418 670.922 97.3281ZM706.371 91.0049V97.6211H682.006V91.0049H706.371ZM697.826 81.5566V107.436H690.648V81.5566H697.826Z" fill="#274C5B"/>
<circle cx="924.5" cy="105.5" r="94.5" fill="#F1F1F1"/>
<path d="M1030 105.5C1030 163.766 982.766 211 924.5 211C866.234 211 819 163.766 819 105.5C819 47.234 866.234 0 924.5 0C982.766 0 1030 47.234 1030 105.5ZM823.215 105.5C823.215 161.438 868.562 206.785 924.5 206.785C980.438 206.785 1025.79 161.438 1025.79 105.5C1025.79 49.5618 980.438 4.21491 924.5 4.21491C868.562 4.21491 823.215 49.5618 823.215 105.5Z" fill="#7EB693"/>
<path d="M856.64 131.013L859.681 125.15H861.966L857.686 133.017V138H855.576V133.087L851.313 125.15H853.599L856.64 131.013ZM867.688 138.176C866.176 138.176 864.992 137.736 864.137 136.857C863.287 135.973 862.862 134.757 862.862 133.21C862.862 131.622 863.258 130.374 864.049 129.466C864.84 128.558 865.927 128.104 867.31 128.104C868.593 128.104 869.606 128.493 870.351 129.272C871.095 130.052 871.467 131.124 871.467 132.489V133.605H864.989C865.019 134.549 865.273 135.275 865.754 135.785C866.234 136.289 866.911 136.541 867.784 136.541C868.358 136.541 868.892 136.488 869.384 136.383C869.882 136.271 870.415 136.09 870.983 135.838V137.517C870.479 137.757 869.97 137.927 869.454 138.026C868.938 138.126 868.35 138.176 867.688 138.176ZM867.31 129.668C866.653 129.668 866.126 129.876 865.728 130.292C865.335 130.708 865.101 131.314 865.024 132.111H869.437C869.425 131.309 869.231 130.702 868.856 130.292C868.481 129.876 867.966 129.668 867.31 129.668ZM879.896 138L879.482 136.646H879.412C878.943 137.238 878.472 137.643 877.997 137.859C877.522 138.07 876.913 138.176 876.169 138.176C875.214 138.176 874.467 137.918 873.928 137.402C873.395 136.887 873.128 136.157 873.128 135.214C873.128 134.212 873.5 133.456 874.244 132.946C874.988 132.437 876.122 132.158 877.646 132.111L879.324 132.059V131.54C879.324 130.919 879.178 130.456 878.885 130.151C878.598 129.841 878.149 129.686 877.54 129.686C877.042 129.686 876.564 129.759 876.107 129.905C875.65 130.052 875.211 130.225 874.789 130.424L874.121 128.947C874.648 128.672 875.226 128.464 875.853 128.323C876.479 128.177 877.071 128.104 877.628 128.104C878.864 128.104 879.796 128.373 880.423 128.912C881.056 129.451 881.372 130.298 881.372 131.452V138H879.896ZM876.819 136.594C877.569 136.594 878.17 136.386 878.621 135.97C879.078 135.548 879.307 134.959 879.307 134.203V133.359L878.059 133.412C877.086 133.447 876.377 133.611 875.932 133.904C875.492 134.191 875.272 134.634 875.272 135.231C875.272 135.665 875.401 136.002 875.659 136.242C875.917 136.477 876.304 136.594 876.819 136.594ZM889.186 128.104C889.602 128.104 889.944 128.133 890.214 128.191L890.012 130.116C889.719 130.046 889.414 130.011 889.098 130.011C888.271 130.011 887.601 130.28 887.085 130.819C886.575 131.358 886.32 132.059 886.32 132.92V138H884.255V128.279H885.872L886.145 129.993H886.25C886.572 129.413 886.991 128.953 887.507 128.613C888.028 128.273 888.588 128.104 889.186 128.104ZM898.555 135.231C898.555 136.181 898.209 136.91 897.518 137.42C896.826 137.924 895.836 138.176 894.547 138.176C893.252 138.176 892.212 137.979 891.427 137.587V135.803C892.569 136.33 893.633 136.594 894.617 136.594C895.889 136.594 896.524 136.21 896.524 135.442C896.524 135.196 896.454 134.991 896.313 134.827C896.173 134.663 895.941 134.493 895.619 134.317C895.297 134.142 894.849 133.942 894.274 133.72C893.155 133.286 892.396 132.853 891.998 132.419C891.605 131.985 891.409 131.423 891.409 130.731C891.409 129.899 891.743 129.255 892.411 128.798C893.085 128.335 893.999 128.104 895.153 128.104C896.296 128.104 897.377 128.335 898.396 128.798L897.729 130.354C896.68 129.92 895.798 129.703 895.083 129.703C893.993 129.703 893.448 130.014 893.448 130.635C893.448 130.939 893.589 131.197 893.87 131.408C894.157 131.619 894.778 131.909 895.733 132.278C896.536 132.589 897.119 132.873 897.482 133.131C897.846 133.389 898.115 133.688 898.291 134.027C898.467 134.361 898.555 134.763 898.555 135.231ZM914.094 133.122C914.094 134.71 913.687 135.949 912.872 136.84C912.058 137.73 910.924 138.176 909.471 138.176C908.562 138.176 907.76 137.971 907.062 137.561C906.365 137.15 905.829 136.562 905.454 135.794C905.079 135.026 904.892 134.136 904.892 133.122C904.892 131.546 905.296 130.315 906.104 129.431C906.913 128.546 908.053 128.104 909.523 128.104C910.93 128.104 912.043 128.558 912.863 129.466C913.684 130.368 914.094 131.587 914.094 133.122ZM907.019 133.122C907.019 135.366 907.848 136.488 909.506 136.488C911.146 136.488 911.967 135.366 911.967 133.122C911.967 130.901 911.141 129.791 909.488 129.791C908.621 129.791 907.991 130.078 907.599 130.652C907.212 131.227 907.019 132.05 907.019 133.122ZM921.354 129.844H918.98V138H916.906V129.844H915.307V128.877L916.906 128.244V127.611C916.906 126.463 917.176 125.613 917.715 125.062C918.254 124.506 919.077 124.228 920.185 124.228C920.911 124.228 921.626 124.348 922.329 124.588L921.784 126.152C921.274 125.988 920.788 125.906 920.325 125.906C919.856 125.906 919.514 126.053 919.297 126.346C919.086 126.633 918.98 127.066 918.98 127.646V128.279H921.354V129.844ZM929.993 138H927.91V125.15H935.161V126.926H929.993V130.942H934.836V132.727H929.993V138ZM943.353 138L942.939 136.646H942.869C942.4 137.238 941.929 137.643 941.454 137.859C940.979 138.07 940.37 138.176 939.626 138.176C938.671 138.176 937.924 137.918 937.385 137.402C936.852 136.887 936.585 136.157 936.585 135.214C936.585 134.212 936.957 133.456 937.701 132.946C938.445 132.437 939.579 132.158 941.103 132.111L942.781 132.059V131.54C942.781 130.919 942.635 130.456 942.342 130.151C942.055 129.841 941.606 129.686 940.997 129.686C940.499 129.686 940.021 129.759 939.564 129.905C939.107 130.052 938.668 130.225 938.246 130.424L937.578 128.947C938.105 128.672 938.683 128.464 939.31 128.323C939.937 128.177 940.528 128.104 941.085 128.104C942.321 128.104 943.253 128.373 943.88 128.912C944.513 129.451 944.829 130.298 944.829 131.452V138H943.353ZM940.276 136.594C941.026 136.594 941.627 136.386 942.078 135.97C942.535 135.548 942.764 134.959 942.764 134.203V133.359L941.516 133.412C940.543 133.447 939.834 133.611 939.389 133.904C938.949 134.191 938.729 134.634 938.729 135.231C938.729 135.665 938.858 136.002 939.116 136.242C939.374 136.477 939.761 136.594 940.276 136.594ZM952.643 128.104C953.059 128.104 953.401 128.133 953.671 128.191L953.469 130.116C953.176 130.046 952.871 130.011 952.555 130.011C951.729 130.011 951.058 130.28 950.542 130.819C950.032 131.358 949.777 132.059 949.777 132.92V138H947.712V128.279H949.329L949.602 129.993H949.707C950.029 129.413 950.448 128.953 950.964 128.613C951.485 128.273 952.045 128.104 952.643 128.104ZM963.673 138H961.599V132.006C961.599 131.262 961.458 130.708 961.177 130.345C960.896 129.976 960.456 129.791 959.858 129.791C959.062 129.791 958.476 130.052 958.101 130.573C957.731 131.089 957.547 131.95 957.547 133.157V138H955.481V128.279H957.099L957.389 129.554H957.494C957.764 129.091 958.153 128.733 958.663 128.481C959.179 128.229 959.744 128.104 960.359 128.104C961.854 128.104 962.844 128.613 963.33 129.633H963.471C963.758 129.152 964.162 128.777 964.684 128.508C965.205 128.238 965.803 128.104 966.477 128.104C967.637 128.104 968.48 128.396 969.008 128.982C969.541 129.568 969.808 130.462 969.808 131.663V138H967.742V132.006C967.742 131.262 967.599 130.708 967.312 130.345C967.03 129.976 966.591 129.791 965.993 129.791C965.19 129.791 964.602 130.043 964.227 130.547C963.857 131.045 963.673 131.812 963.673 132.85V138ZM974.756 138H972.69V128.279H974.756V138ZM972.567 125.704C972.567 125.335 972.667 125.051 972.866 124.852C973.071 124.652 973.361 124.553 973.736 124.553C974.1 124.553 974.381 124.652 974.58 124.852C974.785 125.051 974.888 125.335 974.888 125.704C974.888 126.056 974.785 126.334 974.58 126.539C974.381 126.738 974.1 126.838 973.736 126.838C973.361 126.838 973.071 126.738 972.866 126.539C972.667 126.334 972.567 126.056 972.567 125.704ZM986.27 138H984.195V132.023C984.195 131.273 984.043 130.714 983.738 130.345C983.439 129.976 982.962 129.791 982.306 129.791C981.433 129.791 980.794 130.049 980.39 130.564C979.985 131.08 979.783 131.944 979.783 133.157V138H977.718V128.279H979.335L979.625 129.554H979.73C980.023 129.091 980.439 128.733 980.979 128.481C981.518 128.229 982.115 128.104 982.771 128.104C985.104 128.104 986.27 129.29 986.27 131.663V138ZM997.353 128.279V129.413L995.691 129.721C995.844 129.926 995.97 130.178 996.069 130.477C996.169 130.775 996.219 131.092 996.219 131.426C996.219 132.428 995.873 133.216 995.182 133.79C994.49 134.364 993.538 134.651 992.325 134.651C992.015 134.651 991.733 134.628 991.481 134.581C991.036 134.856 990.813 135.179 990.813 135.548C990.813 135.771 990.916 135.938 991.121 136.049C991.332 136.16 991.716 136.216 992.272 136.216H993.969C995.041 136.216 995.855 136.444 996.412 136.901C996.969 137.358 997.247 138.018 997.247 138.879C997.247 139.98 996.793 140.83 995.885 141.428C994.977 142.025 993.664 142.324 991.947 142.324C990.623 142.324 989.612 142.09 988.915 141.621C988.218 141.152 987.869 140.484 987.869 139.617C987.869 139.02 988.057 138.516 988.432 138.105C988.812 137.701 989.343 137.42 990.022 137.262C989.747 137.145 989.519 136.957 989.337 136.699C989.161 136.436 989.073 136.16 989.073 135.873C989.073 135.51 989.176 135.202 989.381 134.95C989.586 134.698 989.891 134.449 990.295 134.203C989.791 133.986 989.381 133.635 989.064 133.148C988.754 132.656 988.599 132.082 988.599 131.426C988.599 130.371 988.93 129.554 989.592 128.974C990.26 128.394 991.209 128.104 992.439 128.104C992.715 128.104 993.002 128.124 993.301 128.165C993.605 128.2 993.834 128.238 993.986 128.279H997.353ZM989.715 139.512C989.715 139.957 989.914 140.3 990.312 140.54C990.717 140.78 991.282 140.9 992.009 140.9C993.134 140.9 993.972 140.739 994.522 140.417C995.073 140.095 995.349 139.667 995.349 139.134C995.349 138.712 995.196 138.41 994.892 138.229C994.593 138.053 994.033 137.965 993.213 137.965H991.648C991.057 137.965 990.585 138.103 990.233 138.378C989.888 138.659 989.715 139.037 989.715 139.512ZM990.603 131.426C990.603 132.035 990.758 132.504 991.068 132.832C991.385 133.16 991.836 133.324 992.422 133.324C993.617 133.324 994.215 132.686 994.215 131.408C994.215 130.775 994.065 130.289 993.767 129.949C993.474 129.604 993.025 129.431 992.422 129.431C991.824 129.431 991.37 129.601 991.06 129.94C990.755 130.28 990.603 130.775 990.603 131.426Z" fill="#274C5B"/>
<path d="M909.021 105.067V111H884.461V105.971L895.936 93.8125C897.01 92.5755 897.864 91.485 898.499 90.541C899.15 89.597 899.622 88.7425 899.915 87.9775C900.208 87.1963 900.354 86.4801 900.354 85.8291C900.354 84.7712 900.184 83.876 899.842 83.1436C899.516 82.4111 899.036 81.8496 898.401 81.459C897.767 81.0684 896.993 80.873 896.082 80.873C895.105 80.873 894.267 81.1253 893.567 81.6299C892.868 82.1344 892.33 82.8343 891.956 83.7295C891.582 84.6084 891.395 85.6094 891.395 86.7324H883.729C883.729 84.5677 884.249 82.5983 885.291 80.8242C886.333 79.0339 887.789 77.6097 889.661 76.5518C891.533 75.4775 893.722 74.9404 896.229 74.9404C898.8 74.9404 900.957 75.3473 902.698 76.1611C904.44 76.9749 905.758 78.1387 906.653 79.6523C907.549 81.166 907.996 82.9889 907.996 85.1211C907.996 86.3255 907.801 87.4893 907.41 88.6123C907.036 89.7354 906.491 90.8503 905.774 91.957C905.058 93.0638 904.196 94.195 903.187 95.3506C902.177 96.4899 901.038 97.6943 899.769 98.9639L894.397 105.067H909.021ZM920.13 94.9844L914.075 93.5439L916.15 75.4531H936.512V81.4834H922.4L921.546 88.9785C921.985 88.7181 922.677 88.4333 923.621 88.124C924.565 87.7985 925.623 87.6357 926.795 87.6357C928.536 87.6357 930.083 87.9043 931.434 88.4414C932.785 88.9785 933.924 89.7598 934.852 90.7852C935.796 91.7943 936.504 93.0394 936.976 94.5205C937.464 96.0016 937.708 97.6862 937.708 99.5742C937.708 101.137 937.464 102.634 936.976 104.066C936.487 105.482 935.739 106.752 934.729 107.875C933.737 108.982 932.475 109.861 930.945 110.512C929.415 111.163 927.617 111.488 925.55 111.488C923.987 111.488 922.474 111.252 921.009 110.78C919.544 110.308 918.226 109.625 917.054 108.729C915.898 107.818 914.979 106.711 914.295 105.409C913.628 104.107 913.286 102.642 913.27 101.015H920.887C920.968 101.959 921.204 102.772 921.595 103.456C921.985 104.123 922.514 104.644 923.182 105.019C923.849 105.377 924.622 105.556 925.501 105.556C926.347 105.556 927.063 105.393 927.649 105.067C928.235 104.726 928.699 104.262 929.041 103.676C929.399 103.09 929.66 102.406 929.822 101.625C929.985 100.844 930.066 100.006 930.066 99.1104C930.066 98.1826 929.961 97.3525 929.749 96.6201C929.537 95.8714 929.212 95.2367 928.772 94.7158C928.333 94.1787 927.771 93.7718 927.088 93.4951C926.421 93.2021 925.615 93.0557 924.671 93.0557C923.434 93.0557 922.465 93.2591 921.766 93.666C921.066 94.0729 920.521 94.5124 920.13 94.9844ZM965.442 91.0049V97.6211H941.077V91.0049H965.442ZM956.897 81.5566V107.436H949.72V81.5566H956.897Z" fill="#274C5B"/>
</svg>
