<svg width="15" height="16" viewBox="0 0 15 16" fill="none" xmlns="http://www.w3.org/2000/svg">
<mask id="mask0_451_290998" style="mask-type:alpha" maskUnits="userSpaceOnUse" x="0" y="0" width="15" height="16">
<path d="M0 15.4882V0H4.49392C4.93069 0 5.32651 0.013649 5.68138 0.0409469C6.03626 0.0682448 6.34677 0.112604 6.61292 0.174024C7.34314 0.337812 7.97782 0.644914 8.51695 1.09533C9.06291 1.54575 9.49968 2.11218 9.82726 2.79463C10.1548 3.47707 10.3186 4.18 10.3186 4.90339C10.3186 5.20367 10.2913 5.49712 10.2367 5.78375C10.1821 6.07038 10.09 6.38089 9.96033 6.71529C9.7283 7.34314 9.42461 7.85839 9.04926 8.26104C8.68074 8.65686 8.25762 8.98102 7.77991 9.23353C7.35679 9.45191 6.86202 9.62934 6.29559 9.76583L10.4824 15.4882H6.9405L2.87652 9.55086V15.4882H0ZM2.87652 7.37044H4.44274C4.94093 7.37044 5.34357 7.33291 5.65067 7.25784C6.10109 7.15547 6.46279 6.97803 6.73576 6.72553C7.20665 6.27511 7.4421 5.7155 7.4421 5.04671C7.4421 4.69866 7.37385 4.37449 7.23736 4.07422C7.10087 3.77394 6.88932 3.51802 6.60269 3.30646C6.31606 3.08808 5.97825 2.93794 5.58925 2.85605C5.46641 2.83557 5.31286 2.81851 5.1286 2.80486C4.94434 2.79121 4.72254 2.78439 4.46321 2.78439H2.87652V7.37044Z" fill="#2D2D2D"/>
<path d="M11.8746 15.4882V3.86948H14.659V15.4882H11.8746ZM11.8746 2.52847V0H14.659V2.52847H11.8746Z" fill="#2D2D2D"/>
</mask>
<g mask="url(#mask0_451_290998)">
<path fill-rule="evenodd" clip-rule="evenodd" d="M52.2993 -0.235168H41.8169V1.73028H52.2993V-0.235168ZM0 1.22637e-05V15.4882H2.87652V9.55088L6.9405 15.4882H10.4824L6.29559 9.76585C6.86202 9.62936 7.35679 9.45192 7.77991 9.23354C8.25762 8.98103 8.68074 8.65687 9.04926 8.26105C9.42461 7.8584 9.7283 7.34316 9.96033 6.7153C10.09 6.3809 10.1821 6.07039 10.2367 5.78376C10.2913 5.49713 10.3186 5.20368 10.3186 4.9034C10.3186 4.18001 10.1548 3.47709 9.82726 2.79464C9.49968 2.11219 9.06291 1.54576 8.51695 1.09534C7.97782 0.644926 7.34314 0.337824 6.61292 0.174037C6.34677 0.112616 6.03625 0.0682571 5.68138 0.0409591C5.32651 0.0136612 4.93069 1.22637e-05 4.49392 1.22637e-05H0ZM4.44274 7.37045H2.87652V2.7844H4.46321C4.72254 2.7844 4.94434 2.79123 5.1286 2.80487C5.31286 2.81852 5.46641 2.83558 5.58925 2.85606C5.97825 2.93795 6.31606 3.08809 6.60269 3.30647C6.88932 3.51803 7.10087 3.77395 7.23736 4.07423C7.37385 4.37451 7.4421 4.69867 7.4421 5.04672C7.4421 5.71552 7.20665 6.27512 6.73576 6.72554C6.46279 6.97805 6.10109 7.15548 5.65067 7.25785C5.34357 7.33292 4.94093 7.37045 4.44274 7.37045ZM11.8746 3.86949V15.4882H14.659V3.86949H11.8746ZM11.8746 1.22637e-05V2.52848H14.659V1.22637e-05H11.8746ZM16.9111 15.4882V3.86949H19.4395V4.92388C19.7739 4.42569 20.1425 4.06399 20.5451 3.83878C20.9478 3.61358 21.4255 3.50097 21.9782 3.50097H22.1932V6.20347C22.0363 6.20347 21.8861 6.2137 21.7428 6.23418C21.5995 6.25465 21.4459 6.29219 21.2822 6.34678C21.0092 6.42868 20.7464 6.56175 20.4939 6.74601C20.1527 7.02582 19.9207 7.39775 19.7978 7.86182C19.7296 8.16892 19.6955 8.62275 19.6955 9.2233V15.4882H16.9111ZM23.6264 3.86949V15.4882H26.4107V3.86949H23.6264ZM23.6264 1.22637e-05V2.52848H26.4107V1.22637e-05H23.6264ZM29.1235 15.4882V1.22637e-05H32.7473C33.498 1.22637e-05 34.1054 0.0409591 34.5694 0.122853C35.1973 0.232045 35.7637 0.447016 36.2687 0.767767C36.8147 1.12946 37.2549 1.61059 37.5893 2.21114C37.9237 2.80487 38.0909 3.43614 38.0909 4.10494C38.0909 4.76691 37.9441 5.35382 37.6507 5.86566C37.3572 6.37067 36.9307 6.81767 36.3711 7.20667C37.1764 7.53424 37.8042 8.04267 38.2546 8.73194C38.7051 9.41439 38.9303 10.206 38.9303 11.1069C38.9303 11.8371 38.7631 12.5161 38.4287 13.144C38.0943 13.765 37.6268 14.2666 37.0262 14.6488C36.4257 15.0309 35.7432 15.2766 34.9789 15.3858C34.7673 15.4131 34.4636 15.437 34.0678 15.4575C33.6788 15.4779 33.2455 15.4882 32.7678 15.4882H29.1235ZM30.6692 14.0857H32.5835H32.9827C33.8085 14.0857 34.4159 14.0516 34.8049 13.9834C35.2007 13.9083 35.5487 13.7889 35.849 13.6251C36.2721 13.3999 36.6304 13.0518 36.9239 12.5809C37.2173 12.1101 37.364 11.6255 37.364 11.1273C37.364 10.7929 37.3231 10.4858 37.2412 10.206C37.1593 9.9194 37.0296 9.64983 36.8522 9.39733C36.5178 8.90596 36.0435 8.5545 35.4293 8.34294C35.0335 8.20645 34.5967 8.11773 34.119 8.07679C33.9484 8.07679 33.6481 8.06655 33.2182 8.04608C32.7814 8.03243 32.4777 8.0256 32.3071 8.0256H30.6692V14.0857ZM30.6692 6.62317H32.348H32.7166C33.2694 6.62317 33.7505 6.59587 34.16 6.54128C34.5694 6.48668 34.9516 6.36043 35.3065 6.16252C35.6682 5.96461 35.965 5.66433 36.1971 5.26169C36.4291 4.85222 36.5451 4.43251 36.5451 4.00257C36.5451 3.5931 36.4291 3.19046 36.1971 2.79464C35.965 2.39882 35.675 2.09513 35.3269 1.88357C34.9857 1.67201 34.5216 1.5287 33.9347 1.45363C33.5935 1.4195 33.1056 1.40244 32.4709 1.40244H30.6692V6.62317ZM52.5656 15.4882V4.02305H51.071V6.20347C50.6547 5.41183 50.0235 4.80104 49.1772 4.37109C48.7746 4.15953 48.3617 4.00598 47.9386 3.91044C47.5223 3.8149 47.0719 3.76713 46.5873 3.76713C45.7343 3.76713 44.929 3.94115 44.1715 4.2892C43.2911 4.68502 42.4483 5.32311 41.643 6.20347C41.3837 6.4355 41.1312 6.87227 40.8855 7.51377C40.592 8.26446 40.4453 8.98786 40.4453 9.68395C40.4453 10.4551 40.5818 11.2229 40.8548 11.9872C41.08 12.6014 41.3222 13.0484 41.5816 13.3282C42.2913 14.154 43.1 14.7716 44.0077 15.1811C44.8607 15.5701 45.7343 15.7646 46.6283 15.7646C47.5632 15.7646 48.4197 15.5598 49.1977 15.1504C50.0303 14.7068 50.6547 14.0994 51.071 13.3282V15.4882H52.5656ZM43.3525 6.59246C44.2534 5.70528 45.3316 5.26169 46.5873 5.26169C47.8635 5.26169 48.9281 5.70869 49.7812 6.6027C50.6411 7.48988 51.071 8.56474 51.071 9.82727C51.071 11.0284 50.6274 12.0691 49.7402 12.9495C48.8531 13.8298 47.8157 14.27 46.6283 14.27C45.393 14.27 44.3114 13.8367 43.3832 12.9699C42.4619 12.0964 42.0013 11.042 42.0013 9.80679C42.0013 8.54426 42.4517 7.47282 43.3525 6.59246Z" fill="#2D2D2D"/>
<rect x="-2.73349" y="-5.47662" width="30.1369" height="27.5163" fill="#4BA06C"/>
</g>
</svg>
